<svg width="29" height="37" viewBox="0 0 29 37" fill="none" xmlns="http://www.w3.org/2000/svg">
<path d="M23.5625 18.125C26.5656 18.125 29 20.5594 29 23.5625C29 27.6083 27.3362 30.8497 24.606 33.0412C21.9189 35.198 18.3174 36.25 14.5 36.25C10.6826 36.25 7.08115 35.198 4.39404 33.0412C1.66377 30.8497 0 27.6083 0 23.5625C0 20.7362 2.15643 18.4134 4.91376 18.1499L5.43743 18.125H23.5625ZM14.5 0C18.5041 0 21.75 3.24593 21.75 7.25C21.75 11.2541 18.5041 14.5 14.5 14.5C10.4959 14.5 7.25 11.2541 7.25 7.25C7.25 3.24593 10.4959 0 14.5 0Z" fill="#3F9694"/>
</svg>
