<svg width="21" height="18" viewBox="0 0 21 18" fill="none" xmlns="http://www.w3.org/2000/svg">
<path d="M6.27047 8.96831C7.95346 8.96831 9.31779 7.60397 9.31779 5.92098C9.31779 4.23799 7.95346 2.87366 6.27047 2.87366C4.58748 2.87366 3.22314 4.23799 3.22314 5.92098C3.22314 7.60397 4.58748 8.96831 6.27047 8.96831Z" fill="black"/>
<path d="M12.5409 15.4523C9.83869 19.0227 2.6892 18.6711 0 15.4523C0 11.9893 2.80738 9.18188 6.27045 9.18188C9.73353 9.18188 12.5409 11.9893 12.5409 15.4523Z" fill="black"/>
<path d="M13.841 6.09465C15.524 6.09465 16.8883 4.73031 16.8883 3.04732C16.8883 1.36433 15.524 0 13.841 0C12.158 0 10.7937 1.36433 10.7937 3.04732C10.7937 4.73031 12.158 6.09465 13.841 6.09465Z" fill="black"/>
<path d="M14.1796 6.25092C12.008 6.25092 10.0947 7.35506 8.96927 9.03231C11.4129 9.88864 13.166 12.214 13.166 14.9501C13.1541 14.9658 13.1406 14.98 13.1286 14.9956C15.9136 15.3183 18.9069 14.5604 20.4501 12.5214C20.4501 9.0583 17.6427 6.25092 14.1796 6.25092Z" fill="black"/>
</svg>
