<svg width="51" height="51" viewBox="0 0 51 51" fill="none" xmlns="http://www.w3.org/2000/svg">
<circle cx="25.5" cy="25.5" r="25.5" fill="white"/>
<g clip-path="url(#clip0_876_277)">
<path d="M25.5 46C36.2696 46 45 36.8218 45 25.5C45 14.1782 36.2696 5 25.5 5C14.7304 5 6 14.1782 6 25.5C6 36.8218 14.7304 46 25.5 46Z" fill="#AB8CC1"/>
<path d="M17.7761 14.5857C18.3498 14.5857 18.8149 14.1565 18.8149 13.6271C18.8149 13.0977 18.3498 12.6686 17.7761 12.6686C17.2024 12.6686 16.7374 13.0977 16.7374 13.6271C16.7374 14.1565 17.2024 14.5857 17.7761 14.5857Z" fill="black"/>
<path d="M27.3204 14.5857C27.8941 14.5857 28.3591 14.1565 28.3591 13.6271C28.3591 13.0977 27.8941 12.6686 27.3204 12.6686C26.7467 12.6686 26.2816 13.0977 26.2816 13.6271C26.2816 14.1565 26.7467 14.5857 27.3204 14.5857Z" fill="black"/>
<path d="M28.966 17.8647C28.966 20.1684 25.9269 22.0359 22.178 22.0359C18.4291 22.0359 15.39 20.1684 15.39 17.8647C15.39 15.561 28.966 15.561 28.966 17.8647Z" fill="black"/>
</g>
<defs>
<clipPath id="clip0_876_277">
<rect width="39" height="41" fill="white" transform="translate(6 5)"/>
</clipPath>
</defs>
</svg>
