<svg width="135" height="36" viewBox="0 0 135 36" fill="none" xmlns="http://www.w3.org/2000/svg">
<path d="M0.253332 34.3472C0.879118 35.6804 2.46719 36.2538 3.80038 35.6281C5.13358 35.0023 5.70705 33.4142 5.08126 32.081C4.45548 30.7478 2.86741 30.1743 1.53421 30.8001C0.201015 31.4259 -0.372454 33.014 0.253332 34.3472ZM2.87975 33.6667L25.3382 23.125L24.9133 22.2198L2.45484 32.7615L2.87975 33.6667Z" fill="black"/>
<path d="M23.0293 22.9996C23.2973 24.4478 24.6885 25.4045 26.1367 25.1365C27.5849 24.8685 28.5416 23.4772 28.2736 22.0291C28.0056 20.5809 26.6144 19.6242 25.1662 19.8922C23.718 20.1602 22.7613 21.5514 23.0293 22.9996ZM25.7424 23.006L48.7241 18.7529L48.5422 17.7696L25.5605 22.0227L25.7424 23.006Z" fill="black"/>
<path d="M46.2376 19.9088C47.1475 21.0668 48.8239 21.268 49.9819 20.3581C51.14 19.4482 51.3412 17.7718 50.4313 16.6137C49.5214 15.4557 47.8449 15.2545 46.6869 16.1644C45.5288 17.0743 45.3277 18.7507 46.2376 19.9088ZM48.6433 18.6544L68.4909 3.05988L67.8731 2.27356L48.0255 17.8681L48.6433 18.6544Z" fill="black"/>
<path d="M66.4748 0.618143C65.3434 1.56098 65.1905 3.24249 66.1334 4.37389C67.0762 5.5053 68.7577 5.65816 69.8891 4.71532C71.0205 3.77249 71.1734 2.09098 70.2306 0.959574C69.2877 -0.171831 67.6062 -0.324695 66.4748 0.618143ZM67.7979 2.98683L81.9747 19.999L82.7429 19.3589L68.5661 2.34664L67.7979 2.98683Z" fill="black"/>
<path d="M124.944 25.1896C123.576 27.7982 124.582 31.0219 127.19 32.3899C129.799 33.758 133.022 32.7524 134.39 30.1438C135.759 27.5353 134.753 24.3116 132.144 22.9436C129.536 21.5755 126.312 22.5811 124.944 25.1896ZM103.16 14.8938L129.203 28.5523L130.132 26.7812L104.089 13.1226L103.16 14.8938Z" fill="#AB8CC1"/>
<path d="M79.7822 20.366C80.1617 21.7891 81.6229 22.635 83.0459 22.2556C84.469 21.8761 85.3149 20.4149 84.9355 18.9918C84.556 17.5688 83.0948 16.7228 81.6717 17.1023C80.2487 17.4818 79.4027 18.943 79.7822 20.366ZM101.047 14.6953C101.427 16.1183 102.888 16.9643 104.311 16.5848C105.734 16.2054 106.58 14.7441 106.201 13.3211C105.821 11.8981 104.36 11.0521 102.937 11.4316C101.514 11.8111 100.668 13.2723 101.047 14.6953ZM82.4877 20.1621L103.753 14.4913L103.495 13.5251L82.23 19.1958L82.4877 20.1621Z" fill="black"/>
</svg>
