<svg width="8" height="8" viewBox="0 0 8 8" fill="none" xmlns="http://www.w3.org/2000/svg">
<path d="M4.33936 0.201197L5.5081 2.33815C5.54359 2.40305 5.59695 2.45641 5.66185 2.4919L7.7988 3.66064C8.06707 3.80736 8.06707 4.19264 7.7988 4.33936L5.66185 5.5081C5.59695 5.54359 5.54359 5.59695 5.5081 5.66185L4.33936 7.7988C4.19264 8.06707 3.80736 8.06707 3.66064 7.7988L2.4919 5.66185C2.45641 5.59695 2.40305 5.54359 2.33815 5.5081L0.201197 4.33936C-0.0670657 4.19264 -0.0670657 3.80736 0.201197 3.66064L2.33815 2.4919C2.40305 2.45641 2.45641 2.40305 2.4919 2.33815L3.66064 0.201197C3.80736 -0.0670657 4.19264 -0.0670657 4.33936 0.201197Z" fill="black"/>
</svg>
